<svg xmlns="http://www.w3.org/2000/svg" width="64" height="64" viewBox="0 0 128 128"><path fill="#fff" d="M64 86.3l0 31.7v0c0 3.3-2.7 6-6 6h0c-3.3 0-6-2.7-6-6v-3l0-67H17c-2.8 0-5-2.2-5-5v0c0-2.8 2.2-5 5-5h94c2.8 0 5 2.2 5 5v0c0 2.8-2.2 5-5 5H75.9l-.1 21.7L93.3 81C95 82.1 96 84 96 86.1s-1.1 4-2.9 5l-20 12c-1 .6-2 .9-3.1.9-2 0-4-1-5.2-2.9-1.7-2.8-.8-6.5 2.1-8.2l11.8-7.1L64 76.3V86.3zM64 4A12 12 0 1 0 64 28 12 12 0 1 0 64 4z"/><path fill="#444b54" d="M64 31c-8.3 0-15-6.7-15-15S55.7 1 64 1c8.3 0 15 6.7 15 15S72.3 31 64 31zM64 7c-5 0-9 4-9 9s4 9 9 9c5 0 9-4 9-9S69 7 64 7zM58 127c-5 0-9-4-9-9V51H17c-4.4 0-8-3.6-8-8s3.6-8 8-8h94c4.4 0 8 3.6 8 8s-3.6 8-8 8H78.9l0 17 16 10.4c2.6 1.7 4.2 4.6 4.1 7.7-.1 3.1-1.7 5.9-4.4 7.6l-20 12c-2.3 1.4-5.2 1.6-7.6.8l0 11.5C67 123 63 127 58 127zM17 41c-1.1 0-2 .9-2 2s.9 2 2 2h35c1.7 0 3 1.3 3 3v70c0 1.7 1.3 3 3 3s3-1.3 3-3l0-31.7v0-10c0-1.1.6-2.1 1.6-2.6 1-.5 2.1-.5 3.1.1l14.7 9.5c.9.6 1.4 1.5 1.4 2.6 0 1-.6 2-1.5 2.5l-11.8 7.1c-1.4.9-1.9 2.7-1 4.1.5.9 1.5 1.5 2.6 1.5.5 0 1.1-.1 1.5-.4l20-12c.9-.5 1.4-1.5 1.5-2.5 0-1-.5-2-1.4-2.6L74.3 72.2c-.9-.6-1.4-1.5-1.4-2.5L73 48c0-1.7 1.3-3 3-3h35c1.1 0 2-.9 2-2s-.9-2-2-2H17zM67 86.3v3.1l6-3.6-6-3.9V86.3z"/></svg>